<svg width="83" height="85" viewBox="0 0 83 85" fill="none" xmlns="http://www.w3.org/2000/svg">
<g clip-path="url(#clip0_1_526)">
<path d="M44.3004 44.0269C44.3202 44.5112 44.4592 44.9692 44.7174 45.3814C44.9391 45.7413 45.505 45.3978 45.2833 45.0412C45.088 44.7238 44.9788 44.3868 44.9656 44.0171C44.9457 43.5951 44.2838 43.6082 44.3004 44.0269Z" fill="#46A358"/>
<path d="M52.8092 43.9844C52.7761 44.1676 52.7397 44.3476 52.7066 44.5308C52.6735 44.7042 52.7661 44.8841 52.9449 44.9299C53.1103 44.9724 53.3155 44.8678 53.3486 44.6944C53.3817 44.5111 53.4181 44.3312 53.4512 44.148C53.4843 43.9746 53.3916 43.7946 53.2129 43.7488C53.0475 43.7063 52.8423 43.811 52.8092 43.9844Z" fill="#46A358"/>
<path d="M57.3398 44.6355C57.7668 44.6257 57.7535 43.9714 57.3266 43.9812C56.8997 43.991 56.9129 44.6453 57.3398 44.6355Z" fill="#46A358"/>
<path d="M32.4822 45.7936C32.9091 45.7838 32.8959 45.1295 32.4689 45.1393C32.042 45.1491 32.0552 45.8034 32.4822 45.7936Z" fill="#46A358"/>
<path d="M44.5883 4.38731C42.0334 11.8369 40.6401 19.6399 40.4878 27.5083C40.4117 31.4638 40.6467 35.4225 41.1928 39.342C41.4443 41.1479 41.762 42.9474 42.1459 44.7304C42.4471 46.1242 42.6026 47.7175 43.6484 48.7808C44.0952 49.2355 44.7803 48.5256 44.3368 48.0741C43.2083 46.9257 43.0924 44.4981 42.8012 42.9964C42.4338 41.0989 42.1426 39.1849 41.9275 37.2612C41.5204 33.6231 41.3847 29.9588 41.5138 26.301C41.7752 18.9201 43.1553 11.621 45.5514 4.62941C45.7566 4.03069 44.7902 3.79186 44.5883 4.38731Z" fill="#46A358"/>
<path d="M48.4406 4.52135C49.7777 11.9644 49.8108 19.5711 50.0788 27.1058C50.2046 30.6457 50.4197 34.1955 50.3469 37.7388C50.2708 41.4161 49.546 44.8743 48.5697 48.4077C48.4009 49.0195 49.364 49.2583 49.5328 48.6498C50.4495 45.3421 51.1776 42.077 51.3166 38.6352C51.4721 34.791 51.2107 30.9271 51.075 27.0894C50.8036 19.4631 50.7473 11.7779 49.3938 4.24326C49.2812 3.62164 48.3281 3.903 48.4406 4.52135Z" fill="#46A358"/>
<path d="M55.6288 17.3104C56.0822 27.4951 56.4926 37.8042 53.9774 47.7796C53.8218 48.3947 54.7849 48.6335 54.9405 48.0217C57.4755 37.9613 57.0817 27.5606 56.6217 17.2908C56.5919 16.6593 55.599 16.6757 55.6288 17.3104Z" fill="#46A358"/>
<path d="M52.8224 17.4608C51.4158 19.0868 50.4759 20.9778 50.0622 23.0815C49.9398 23.6999 50.9029 23.9453 51.0253 23.3236C51.4059 21.3803 52.2366 19.6463 53.5372 18.1413C53.9509 17.6604 53.2394 16.9798 52.8224 17.4608Z" fill="#46A358"/>
<path d="M62.6054 23.7163C62.5822 31.0907 61.5828 38.3963 59.6235 45.5123C59.4547 46.1241 60.4178 46.3629 60.5866 45.7544C62.5657 38.5567 63.5751 31.1561 63.5983 23.6967C63.5983 23.0652 62.6054 23.0849 62.6054 23.7163Z" fill="#46A358"/>
<path d="M60.719 21.5211C58.1509 24.4624 56.8899 28.0841 55.9831 31.8106C55.8342 32.4257 56.7973 32.6678 56.9462 32.0527C57.8133 28.5029 58.9849 25.012 61.4372 22.2017C61.8509 21.724 61.136 21.0402 60.719 21.5211Z" fill="#46A358"/>
<path d="M36.7547 10.4171C38.522 14.5329 39.8061 18.7991 40.6004 23.1995C40.7129 23.8212 41.6628 23.5365 41.5535 22.9182C40.7593 18.5178 39.4719 14.2515 37.7079 10.1357C37.4597 9.56317 36.5065 9.83472 36.7547 10.4171Z" fill="#46A358"/>
<path d="M34.9146 10.7735C34.395 17.0192 33.8854 23.3434 34.9378 29.5661C36.0399 36.0571 38.7471 42.3911 40.8287 48.6236C41.0273 49.2224 41.9804 48.9443 41.7819 48.3423C39.7664 42.2995 37.1618 36.1553 35.9968 29.8867C34.8253 23.5756 35.378 17.101 35.9075 10.7539C35.9604 10.1258 34.9676 10.1487 34.9146 10.7735Z" fill="#46A358"/>
<path d="M28.5969 25.8625C31.9097 28.9117 34.5937 32.4779 36.6059 36.4857C36.8905 37.0517 37.7345 36.5348 37.4532 35.972C35.4046 31.8922 32.6577 28.2574 29.2853 25.1526C28.8186 24.724 28.1303 25.4307 28.5969 25.8625Z" fill="#46A358"/>
<path d="M26.3231 27.1222C28.8879 34.6994 32.3398 41.9364 36.6256 48.7087C36.9632 49.2453 37.8137 48.7349 37.4728 48.1951C33.23 41.4914 29.8146 34.3395 27.2762 26.8408C27.0743 26.2454 26.1212 26.5202 26.3231 27.1222Z" fill="#46A358"/>
<path d="M32.0685 46.7621C30.6057 44.1774 28.4611 42.0279 25.7936 40.6604C25.2509 40.3823 24.7313 40.4542 25.7837 40.3496C26.1676 40.3103 26.5647 40.2939 26.9486 40.3005C28.1996 40.3136 29.3315 40.536 30.4071 41.2067C31.6581 41.9854 32.7502 43.1043 33.8688 44.0564C34.352 44.4686 35.0404 43.7619 34.5572 43.3497C33.1407 42.1392 31.7375 40.6276 30 39.8752C29.0303 39.4531 27.9812 39.3288 26.9288 39.3255C26.2603 39.3222 24.8703 39.1979 24.311 39.7607C23.2188 40.8534 25.3104 41.4979 25.9624 41.8807C28.1996 43.1828 29.9603 45.0542 31.2212 47.2855C31.5323 47.8286 32.3796 47.315 32.0685 46.7621Z" fill="#46A358"/>
<path d="M62.2811 38.7923C63.2508 36.6559 65.5046 35.9852 67.6492 35.5402C67.9636 35.4748 68.0893 35.0626 67.9305 34.8139C66.7655 32.9949 64.6441 32.8084 62.6551 32.9883C62.023 33.0439 62.0362 34.0254 62.675 33.9698C64.2801 33.8259 66.1169 33.816 67.0832 35.3276C67.1759 35.0855 67.2719 34.8434 67.3646 34.6013C64.9751 35.0953 62.483 35.9492 61.414 38.3146C61.1526 38.8872 62.0197 39.3681 62.2811 38.7923Z" fill="#46A358"/>
<path d="M28.4313 24.9138C27.9944 25.4831 27.5046 26.193 26.7798 26.4221C26.065 26.6478 25.3005 26.3239 25.3567 25.47C25.3998 24.8026 25.9789 24.3151 26.5415 24.037C27.1968 23.7131 28.9939 23.5593 28.5173 24.8026C28.2923 25.3948 29.2553 25.627 29.4804 25.0447C29.9404 23.844 28.835 22.7938 27.6635 22.7709C26.4323 22.748 24.9993 23.5561 24.536 24.711C24.1024 25.7808 24.5558 27.1189 25.7605 27.4232C27.2332 27.7929 28.3485 26.638 29.1494 25.5976C29.53 25.0938 28.8185 24.41 28.4313 24.9138Z" fill="#46A358"/>
<path d="M36.9963 9.68083C36.3775 9.79534 35.4806 10.1945 34.8617 9.86732C34.2428 9.53688 34.3553 8.71569 34.7128 8.24129C35.0867 7.74727 35.6758 7.56733 36.2715 7.73091C36.7547 7.86505 38.2606 9.11483 37.2115 9.5467C36.629 9.78553 36.9037 10.731 37.4961 10.4889C38.7371 9.97856 38.6941 8.55865 37.8965 7.64585C37.0923 6.72323 35.6527 6.37316 34.5771 7.04386C33.6372 7.63276 33.1143 8.91526 33.6239 9.94257C34.3454 11.4017 36.0333 10.8521 37.281 10.6231C37.9065 10.5053 37.6185 9.56305 36.9963 9.68083Z" fill="#46A358"/>
<path d="M48.7915 3.6937C47.931 3.9129 46.9282 4.17136 46.0413 3.9587C44.7936 3.66425 44.7472 2.25089 45.6243 1.51803C46.3259 0.932397 47.4015 0.866963 48.252 1.12215C48.7882 1.28247 49.417 1.62927 49.5626 2.21162C49.7016 2.758 49.4335 3.29782 48.8775 3.43196C48.2586 3.58246 48.5399 4.5247 49.1621 4.37421C50.6415 4.01432 50.9658 2.19199 50.0557 1.11888C49.0298 -0.0883685 46.9712 -0.294485 45.5912 0.372939C44.2938 1.0011 43.5029 2.68929 44.3666 3.97833C45.3661 5.47349 47.6199 5.00237 49.0728 4.6294C49.6917 4.47563 49.4103 3.53338 48.7915 3.6937Z" fill="#46A358"/>
<path d="M55.8704 13.3419C54.444 13.09 52.8819 13.4989 52.23 14.8959C51.7004 16.0279 52.2002 17.4969 53.4313 17.9222C54.6724 18.3508 56.5555 17.8208 57.2439 16.6823C57.9025 15.5863 57.4259 14.1958 56.3867 13.5414C55.8473 13.2012 55.3674 14.0616 55.9035 14.3986C56.572 14.8174 56.7905 15.7695 56.2444 16.3813C55.7579 16.9276 54.7187 17.1599 54.0138 17.0356C53.107 16.8753 52.7562 15.9363 53.2096 15.1609C53.706 14.3136 54.7286 14.1369 55.6288 14.2939C56.2543 14.4052 56.4992 13.4531 55.8704 13.3419Z" fill="#46A358"/>
<path d="M63.5651 18.7663C62.3108 18.6845 60.5733 18.8612 60.2953 20.3793C60.0669 21.6225 61.4966 23.2649 62.5921 23.7066C65.7196 24.9662 66.3881 18.6845 63.6908 18.8514C63.0554 18.8906 63.072 19.8721 63.7107 19.8329C64.5877 19.7773 64.3726 21.8286 64.174 22.2343C63.7074 23.1995 62.8138 22.8461 62.2247 22.231C61.7713 21.7566 60.9572 20.9158 61.4271 20.2353C61.8805 19.581 62.8932 19.7053 63.5849 19.7478C64.2237 19.7904 64.1972 18.8089 63.5651 18.7663Z" fill="#46A358"/>
<path d="M45.6374 6.17679C45.5381 6.50723 45.4355 6.83767 45.3362 7.16811C45.2138 7.5738 45.8558 7.73084 45.9783 7.32843C46.0776 6.99799 46.1802 6.66755 46.2795 6.33711C46.4019 5.93142 45.7599 5.77438 45.6374 6.17679Z" fill="#46A358"/>
<path d="M47.0506 6.23246C47.0539 6.45166 47.0605 6.66759 47.0638 6.88679C47.0738 7.30884 47.7357 7.29575 47.7257 6.87371C47.7224 6.6545 47.7158 6.43857 47.7125 6.21937C47.7059 5.79732 47.044 5.81041 47.0506 6.23246Z" fill="#46A358"/>
<path d="M46.5808 10.1682C47.0077 10.1584 46.9945 9.50409 46.5675 9.5139C46.1439 9.52045 46.1571 10.1748 46.5808 10.1682Z" fill="#46A358"/>
<path d="M44.605 10.5347C44.5752 10.8978 44.5455 11.2643 44.519 11.6274C44.5057 11.8041 44.6911 11.9513 44.8566 11.9481C45.0518 11.9448 45.1676 11.791 45.1809 11.6143C45.2107 11.2512 45.2405 10.8848 45.2669 10.5216C45.2802 10.3449 45.0948 10.1977 44.9294 10.201C44.7341 10.2043 44.6183 10.358 44.605 10.5347Z" fill="#46A358"/>
<path d="M46.1703 11.5948C46.1802 11.9939 46.1868 12.3931 46.1968 12.7955C46.2067 13.2175 46.8686 13.2044 46.8587 12.7824C46.8487 12.3832 46.8421 11.9841 46.8322 11.5817C46.8223 11.1596 46.1603 11.1727 46.1703 11.5948Z" fill="#46A358"/>
<path d="M47.3419 9.27847C47.3849 9.60564 47.4279 9.9328 47.471 10.2567C47.4941 10.4334 47.6166 10.5806 47.8085 10.5773C47.9707 10.5741 48.156 10.4203 48.1329 10.2436C48.0898 9.91645 48.0468 9.58928 48.0038 9.26538C47.9806 9.08871 47.8582 8.94148 47.6662 8.94476C47.5008 8.94803 47.3154 9.1018 47.3419 9.27847Z" fill="#46A358"/>
<path d="M47.4379 14.1859C47.4412 14.3692 47.4445 14.5491 47.4478 14.7323C47.4577 15.1544 48.1196 15.1413 48.1097 14.7192C48.1064 14.536 48.1031 14.3561 48.0998 14.1729C48.0898 13.7508 47.4279 13.7639 47.4379 14.1859Z" fill="#46A358"/>
<path d="M46.0048 8.86951C45.9717 9.1934 46.0445 9.49767 46.1802 9.79212C46.253 9.95244 46.4979 9.98515 46.6369 9.90009C46.8057 9.79867 46.8189 9.61218 46.7461 9.4486C46.66 9.26211 46.6468 9.05599 46.6667 8.85315C46.6832 8.67648 46.4913 8.52925 46.3291 8.53252C46.1338 8.53907 46.0213 8.69284 46.0048 8.86951Z" fill="#46A358"/>
<path d="M43.6948 14.0648C43.6286 14.4313 43.5624 14.7944 43.4962 15.1608C43.4201 15.5731 44.0622 15.7367 44.1383 15.3212C44.2045 14.9547 44.2707 14.5916 44.3369 14.2251C44.4097 13.8129 43.7709 13.6493 43.6948 14.0648Z" fill="#46A358"/>
<path d="M45.5183 16.3222C45.4885 16.5774 45.4554 16.8326 45.4256 17.0878C45.4058 17.2645 45.4753 17.4379 45.6639 17.487C45.8195 17.5262 46.0445 17.4281 46.0677 17.2514C46.0975 16.9962 46.1306 16.741 46.1603 16.4858C46.1802 16.3092 46.1107 16.1358 45.9221 16.0867C45.7665 16.0442 45.5415 16.1456 45.5183 16.3222Z" fill="#46A358"/>
<path d="M44.9359 20.978C44.9888 21.2561 44.9557 21.5277 44.8664 21.7927C44.7307 22.1918 45.3727 22.3521 45.5084 21.953C45.6375 21.5735 45.6474 21.1841 45.5713 20.7915C45.5382 20.6181 45.3198 20.5233 45.1609 20.5723C44.9723 20.628 44.8995 20.8046 44.9359 20.978Z" fill="#46A358"/>
<path d="M42.9138 18.3378C42.884 18.593 42.8509 18.8482 42.8211 19.1034C42.8013 19.28 42.8708 19.4534 43.0594 19.5025C43.215 19.5418 43.44 19.4436 43.4632 19.2669C43.493 19.0117 43.5261 18.7566 43.5559 18.5014C43.5757 18.3247 43.5062 18.1513 43.3176 18.1022C43.1587 18.063 42.9337 18.1611 42.9138 18.3378Z" fill="#46A358"/>
<path d="M47.4214 18.8578C47.5008 19.221 47.5769 19.5841 47.6563 19.944C47.7457 20.3562 48.3811 20.1665 48.2918 19.7575C48.2123 19.3944 48.1362 19.0312 48.0568 18.6713C47.9674 18.2591 47.3353 18.4456 47.4214 18.8578Z" fill="#46A358"/>
<path d="M47.8548 23.6673C47.8614 24.0304 47.8713 24.3936 47.878 24.7567C47.8879 25.1788 48.5498 25.1657 48.5399 24.7437C48.5332 24.3805 48.5233 24.0173 48.5167 23.6542C48.5101 23.2321 47.8482 23.2452 47.8548 23.6673Z" fill="#46A358"/>
<path d="M47.0737 28.4637C47.1167 28.7189 47.1564 28.9708 47.1995 29.226C47.2292 29.3994 47.4543 29.491 47.6098 29.4452C47.7985 29.3896 47.8614 29.2129 47.8316 29.0395C47.7886 28.7843 47.7488 28.5324 47.7058 28.2772C47.676 28.1038 47.451 28.0122 47.2954 28.058C47.1068 28.1103 47.0439 28.287 47.0737 28.4637Z" fill="#46A358"/>
<path d="M44.3733 26.0295C44.3766 26.2487 44.3833 26.4646 44.3866 26.6838C44.3965 27.1058 45.0584 27.0928 45.0485 26.6707C45.0452 26.4515 45.0386 26.2356 45.0352 26.0164C45.0286 25.5943 44.3667 25.6074 44.3733 26.0295Z" fill="#46A358"/>
<path d="M42.5496 23.2289C42.5728 23.5004 42.5463 23.7556 42.4669 24.0174C42.3444 24.423 42.9865 24.5801 43.1089 24.1777C43.2049 23.8669 43.238 23.5397 43.2115 23.2158C43.1751 22.8003 42.5132 22.8101 42.5496 23.2289Z" fill="#46A358"/>
<path d="M43.3804 30.7604C43.3473 31.0156 43.3175 31.2708 43.2844 31.526C43.2613 31.7026 43.3341 31.876 43.5227 31.9251C43.6783 31.9644 43.9033 31.8662 43.9265 31.6895C43.9596 31.4343 43.9894 31.1792 44.0225 30.924C44.0456 30.7473 43.9728 30.5739 43.7842 30.5248C43.6253 30.4856 43.4036 30.5837 43.3804 30.7604Z" fill="#46A358"/>
<path d="M46.756 34.4672C46.799 34.6831 46.8387 34.9023 46.8818 35.1182C46.9149 35.2916 47.1333 35.3865 47.2921 35.3374C47.4775 35.2818 47.547 35.1051 47.5139 34.9317C47.4709 34.7158 47.4311 34.4966 47.3881 34.2807C47.355 34.1073 47.1366 34.0124 46.9777 34.0615C46.7924 34.1171 46.7229 34.2938 46.756 34.4672Z" fill="#46A358"/>
<path d="M44.9657 38.2131C45.0452 38.5763 45.1279 38.9362 45.2073 39.2993C45.3 39.7116 45.9321 39.5218 45.8428 39.1129C45.7633 38.7497 45.6806 38.3898 45.6012 38.0267C45.5085 37.6144 44.8731 37.8009 44.9657 38.2131Z" fill="#46A358"/>
<path d="M48.6591 40.5818C48.5896 40.837 48.5234 41.0922 48.4539 41.3507C48.3446 41.7596 48.9867 41.9199 49.0959 41.511C49.1654 41.2558 49.2316 41.0006 49.3011 40.7421C49.4103 40.3332 48.7683 40.1729 48.6591 40.5818Z" fill="#46A358"/>
<path d="M48.166 12.1869C48.2091 12.4421 48.2521 12.6941 48.2951 12.9492C48.3249 13.1226 48.5499 13.2143 48.7055 13.1684C48.8941 13.1128 48.957 12.9362 48.9272 12.7628C48.8842 12.5076 48.8412 12.2556 48.7981 12.0005C48.7684 11.8271 48.5433 11.7355 48.3878 11.7813C48.2024 11.8369 48.1362 12.0135 48.166 12.1869Z" fill="#46A358"/>
<path d="M48.2454 16.6789C48.2918 17.006 48.3381 17.3299 48.3844 17.6571C48.4109 17.8305 48.5267 17.981 48.722 17.9777C48.8842 17.9744 49.0695 17.8207 49.0463 17.644C49 17.3168 48.9537 16.9929 48.9073 16.6658C48.8809 16.4924 48.765 16.3419 48.5698 16.3451C48.4076 16.3484 48.2189 16.5055 48.2454 16.6789Z" fill="#46A358"/>
<path d="M53.2097 20.3106C53.1204 20.8242 53.0277 21.3346 52.9384 21.8483C52.8656 22.2605 53.5076 22.4241 53.5804 22.0086C53.6698 21.4949 53.7624 20.9845 53.8518 20.4709C53.9246 20.0586 53.2826 19.8951 53.2097 20.3106Z" fill="#46A358"/>
<path d="M54.4971 19.388C54.5037 19.6432 54.507 19.8984 54.5137 20.1503C54.5236 20.5723 55.1855 20.5592 55.1756 20.1372C55.1689 19.882 55.1656 19.6268 55.159 19.3749C55.1491 18.9528 54.4905 18.9659 54.4971 19.388Z" fill="#46A358"/>
<path d="M54.1364 22.8854C54.0735 23.4318 54.0139 23.9781 53.9511 24.5245C53.9047 24.9433 54.5666 24.9237 54.613 24.5114C54.6758 23.9651 54.7354 23.4187 54.7983 22.8723C54.8446 22.4568 54.1827 22.4732 54.1364 22.8854Z" fill="#46A358"/>
<path d="M52.422 23.8439C52.2796 24.1383 52.1406 24.4328 51.9983 24.724C51.8163 25.1035 52.3955 25.4241 52.5775 25.0413C52.7198 24.7469 52.8588 24.4524 53.0011 24.1613C53.1832 23.7817 52.604 23.4611 52.422 23.8439Z" fill="#46A358"/>
<path d="M51.4258 22.0936C51.3398 22.3161 51.257 22.5353 51.171 22.7577C51.1081 22.9246 51.2504 23.1144 51.4093 23.1569C51.5979 23.206 51.7468 23.0849 51.813 22.9213C51.8991 22.6989 51.9818 22.4797 52.0679 22.2572C52.1307 22.0903 51.9884 21.9006 51.8296 21.858C51.6409 21.809 51.492 21.9267 51.4258 22.0936Z" fill="#46A358"/>
<path d="M53.3155 26.3925C53.3023 26.6837 53.2924 26.9749 53.2791 27.266C53.2626 27.6881 53.9245 27.6717 53.941 27.253C53.9543 26.9618 53.9642 26.6706 53.9774 26.3794C53.994 25.9574 53.3321 25.9737 53.3155 26.3925Z" fill="#46A358"/>
<path d="M54.6724 28.1103C54.6592 28.3818 54.646 28.6566 54.6327 28.9282C54.6228 29.1048 54.8015 29.2521 54.9703 29.2488C55.1589 29.2455 55.2847 29.0918 55.2946 28.9151C55.3079 28.6435 55.3211 28.3687 55.3343 28.0972C55.3443 27.9205 55.1656 27.7733 54.9968 27.7765C54.8081 27.7798 54.6824 27.9336 54.6724 28.1103Z" fill="#46A358"/>
<path d="M54.1497 31.035C54.1199 31.2706 54.0868 31.5094 54.057 31.745C54.0339 31.9184 54.11 32.095 54.2953 32.1441C54.4542 32.1834 54.6759 32.0852 54.6991 31.9085C54.7288 31.673 54.7619 31.4342 54.7917 31.1986C54.8149 31.0252 54.7388 30.8485 54.5534 30.7995C54.3946 30.7569 54.1728 30.8583 54.1497 31.035Z" fill="#46A358"/>
<path d="M51.6808 29.0133C51.6477 29.2129 51.6146 29.4157 51.5815 29.6153C51.5517 29.7887 51.6377 29.9653 51.8198 30.0144C51.9819 30.0537 52.1937 29.9523 52.2235 29.7789C52.2566 29.5793 52.2897 29.3764 52.3228 29.1769C52.3526 29.0035 52.2665 28.8268 52.0845 28.7777C51.9224 28.7352 51.7105 28.8366 51.6808 29.0133Z" fill="#46A358"/>
<path d="M52.1573 34.2152C52.1606 34.3592 52.164 34.5064 52.1673 34.6504C52.1772 35.0724 52.8391 35.0593 52.8292 34.6373C52.8259 34.4933 52.8225 34.3461 52.8192 34.2022C52.8093 33.7801 52.1474 33.7932 52.1573 34.2152Z" fill="#46A358"/>
<path d="M54.2953 36.1357C54.2986 36.2796 54.3019 36.4268 54.3052 36.5708C54.3151 36.9928 54.977 36.9797 54.9671 36.5577C54.9638 36.4137 54.9605 36.2665 54.9572 36.1226C54.9473 35.7005 54.2853 35.7136 54.2953 36.1357Z" fill="#46A358"/>
<path d="M52.3889 40.101C52.4154 40.3562 52.3889 40.5918 52.3061 40.8339C52.2499 41.0007 52.3823 41.1905 52.5444 41.233C52.7298 41.2788 52.8886 41.1643 52.9482 40.9974C53.0475 40.7063 53.0839 40.3955 53.0508 40.0912C53.0309 39.9145 52.9019 39.7673 52.7132 39.7706C52.5444 39.7706 52.369 39.9243 52.3889 40.101Z" fill="#46A358"/>
<path d="M53.2063 18.6517C53.1203 18.8185 53.0309 18.9854 52.9449 19.149C52.7496 19.5219 53.3254 19.8425 53.524 19.4663C53.6101 19.2994 53.6994 19.1326 53.7855 18.969C53.9807 18.596 53.4049 18.2754 53.2063 18.6517Z" fill="#46A358"/>
<path d="M36.0399 12.4324C36.0995 12.776 36.1624 13.1228 36.2219 13.4663C36.2517 13.6397 36.4768 13.7313 36.6323 13.6855C36.821 13.6299 36.8871 13.4532 36.854 13.2798C36.7945 12.9363 36.7316 12.5895 36.672 12.2459C36.6422 12.0725 36.4172 11.9809 36.2616 12.0267C36.073 12.0824 36.0068 12.259 36.0399 12.4324Z" fill="#46A358"/>
<path d="M37.0262 14.595C37.1785 14.9549 37.334 15.318 37.4863 15.6779C37.5558 15.8415 37.7146 15.9527 37.8966 15.8971C38.0522 15.8513 38.1879 15.655 38.1184 15.4914C37.9661 15.1315 37.8106 14.7684 37.6584 14.4085C37.5889 14.2449 37.43 14.1337 37.248 14.1893C37.0924 14.2351 36.9567 14.4314 37.0262 14.595Z" fill="#46A358"/>
<path d="M36.1226 15.8023C36.0465 16.3061 36.0531 16.787 36.1424 17.2843C36.2153 17.6966 36.8474 17.5101 36.7779 17.0978C36.7117 16.7249 36.7117 16.3388 36.7679 15.9626C36.8242 15.5503 36.1822 15.3868 36.1226 15.8023Z" fill="#46A358"/>
<path d="M37.3803 17.6931C37.4928 18.0006 37.602 18.3114 37.7145 18.619C37.8568 19.0149 38.4922 18.8316 38.3499 18.4325C38.2374 18.125 38.1282 17.8141 38.0157 17.5066C37.8734 17.1107 37.2379 17.294 37.3803 17.6931Z" fill="#46A358"/>
<path d="M35.8414 19.0019C35.848 19.365 35.8579 19.7282 35.8645 20.0913C35.8745 20.5134 36.5364 20.5003 36.5264 20.0783C36.5198 19.7151 36.5099 19.3519 36.5033 18.9888C36.4966 18.5667 35.8347 18.5798 35.8414 19.0019Z" fill="#46A358"/>
<path d="M37.0824 20.232C37.089 20.5591 37.0956 20.8863 37.1022 21.2135C37.1122 21.6355 37.7741 21.6224 37.7641 21.2004C37.7575 20.8732 37.7509 20.5461 37.7443 20.2189C37.7344 19.7968 37.0725 19.8099 37.0824 20.232Z" fill="#46A358"/>
<path d="M38.9323 20.8797C39.0647 21.2593 39.2004 21.6388 39.3328 22.0183C39.4718 22.4142 40.1072 22.231 39.9682 21.8318C39.8358 21.4523 39.7002 21.0728 39.5678 20.6933C39.4288 20.2974 38.7933 20.4806 38.9323 20.8797Z" fill="#46A358"/>
<path d="M39.6573 24.1383C39.697 24.3379 39.74 24.5375 39.7798 24.737C39.8162 24.9104 40.0313 25.0053 40.1901 24.9562C40.3755 24.9006 40.4483 24.7239 40.4119 24.5505C40.3722 24.351 40.3291 24.1514 40.2894 23.9518C40.253 23.7784 40.0379 23.6835 39.879 23.7326C39.697 23.785 39.6209 23.9649 39.6573 24.1383Z" fill="#46A358"/>
<path d="M37.8402 24.1743C37.9494 24.4818 38.0289 24.7959 38.0653 25.1198C38.0851 25.2965 38.2142 25.4437 38.4028 25.4404C38.5683 25.4372 38.747 25.2834 38.7272 25.1067C38.6841 24.7239 38.6047 24.351 38.4756 23.9878C38.3333 23.5919 37.6979 23.7752 37.8402 24.1743Z" fill="#46A358"/>
<path d="M36.1424 22.8689C36.149 23.1241 36.1523 23.3793 36.1589 23.6312C36.1689 24.0533 36.8308 24.0402 36.8208 23.6181C36.8142 23.363 36.8109 23.1078 36.8043 22.8558C36.7944 22.4338 36.1358 22.4469 36.1424 22.8689Z" fill="#46A358"/>
<path d="M36.9402 26.7786C36.9667 27.1058 37.0295 27.4264 37.1388 27.7339C37.2811 28.1298 37.9165 27.9466 37.7742 27.5474C37.6815 27.2922 37.6219 27.0338 37.6021 26.7655C37.5723 26.3467 36.9104 26.3598 36.9402 26.7786Z" fill="#46A358"/>
<path d="M38.3896 29.5629C38.4491 29.7625 38.5087 29.962 38.5683 30.1583C38.6874 30.5608 39.3228 30.3775 39.2037 29.9718C39.1441 29.7723 39.0846 29.576 39.025 29.3764C38.9058 28.974 38.2704 29.1572 38.3896 29.5629Z" fill="#46A358"/>
<path d="M39.1673 27.0372C39.2071 27.1812 39.2468 27.3251 39.2865 27.4723C39.399 27.878 40.0344 27.6915 39.9219 27.2859C39.8822 27.1419 39.8425 26.9979 39.8028 26.8507C39.6903 26.445 39.0548 26.6315 39.1673 27.0372Z" fill="#46A358"/>
<path d="M37.291 32.4779C37.3737 32.8018 37.4531 33.129 37.5359 33.4529C37.6385 33.8618 38.2739 33.6753 38.1713 33.2664C38.0885 32.9425 38.0091 32.6153 37.9264 32.2914C37.8238 31.8824 37.1884 32.0689 37.291 32.4779Z" fill="#46A358"/>
<path d="M38.9357 37.2416C38.9953 37.3855 39.0515 37.5295 39.1111 37.6735C39.1773 37.837 39.3395 37.9483 39.5215 37.8927C39.6803 37.8468 39.8094 37.6505 39.7432 37.487C39.6837 37.343 39.6274 37.1991 39.5678 37.0551C39.5016 36.8915 39.3395 36.7803 39.1574 36.8359C38.9986 36.8817 38.8695 37.078 38.9357 37.2416Z" fill="#46A358"/>
<path d="M60.4806 23.6836C60.3052 24.0336 60.1265 24.3804 59.9511 24.7305C59.7591 25.1068 60.3383 25.4274 60.5302 25.0479C60.7056 24.6978 60.8843 24.351 61.0598 24.0009C61.2517 23.6247 60.6725 23.3073 60.4806 23.6836Z" fill="#46A358"/>
<path d="M61.4073 24.5047C61.3246 24.8352 61.2385 25.1623 61.1558 25.4928C61.0499 25.9017 61.6919 26.0621 61.7978 25.6531C61.8806 25.3227 61.9666 24.9955 62.0494 24.6651C62.152 24.2594 61.5099 24.0991 61.4073 24.5047Z" fill="#46A358"/>
<path d="M60.5931 27.6326C60.5104 27.9074 60.4277 28.1823 60.3416 28.4571C60.2192 28.8628 60.8612 29.0198 60.9837 28.6174C61.0664 28.3426 61.1491 28.0678 61.2352 27.7929C61.3543 27.3905 60.7123 27.2302 60.5931 27.6326Z" fill="#46A358"/>
<path d="M60.0371 26.3076C59.9676 26.4352 59.8948 26.566 59.8253 26.6936C59.6201 27.0633 60.1993 27.384 60.4045 27.011C60.474 26.8834 60.5468 26.7525 60.6163 26.6249C60.8215 26.2585 60.2423 25.9379 60.0371 26.3076Z" fill="#46A358"/>
<path d="M61.672 26.4645C61.6422 26.7197 61.6124 26.9749 61.5826 27.2301C61.5628 27.4067 61.6323 27.5801 61.8209 27.6292C61.9764 27.6685 62.2015 27.5703 62.2247 27.3937C62.2545 27.1385 62.2842 26.8833 62.314 26.6281C62.3339 26.4514 62.2644 26.278 62.0757 26.2289C61.9169 26.1897 61.6918 26.2878 61.672 26.4645Z" fill="#46A358"/>
<path d="M58.5546 28.1626C58.4884 28.372 58.3891 28.5617 58.27 28.745C58.0383 29.0983 58.6175 29.4157 58.8492 29.0623C59.0014 28.8333 59.1139 28.5846 59.1966 28.3229C59.2496 28.1561 59.1238 27.9663 58.9584 27.9238C58.773 27.8812 58.6076 27.9925 58.5546 28.1626Z" fill="#46A358"/>
<path d="M58.5346 30.9763C58.3923 31.2085 58.3228 31.4735 58.3361 31.7451C58.3559 32.1639 59.0178 32.1541 58.998 31.732C58.9914 31.5684 59.0244 31.4343 59.1138 31.2969C59.3355 30.9337 58.7564 30.6164 58.5346 30.9763Z" fill="#46A358"/>
<path d="M60.259 30.2565C60.1928 30.4757 60.1266 30.6982 60.0637 30.9174C59.9446 31.3231 60.5866 31.4801 60.7058 31.0777C60.772 30.8585 60.8382 30.636 60.901 30.4168C61.0202 30.0111 60.3781 29.8541 60.259 30.2565Z" fill="#46A358"/>
<path d="M59.7128 33.4822C59.6433 33.7211 59.5771 33.9566 59.5076 34.1955C59.3917 34.6012 60.0338 34.7615 60.1496 34.3558C60.2191 34.1169 60.2853 33.8814 60.3548 33.6426C60.4706 33.2401 59.8286 33.0798 59.7128 33.4822Z" fill="#46A358"/>
<path d="M61.8112 28.8366C61.7946 28.9838 61.7814 29.1277 61.7648 29.275C61.745 29.4516 61.9402 29.5989 62.1024 29.5956C62.301 29.5923 62.4069 29.4386 62.4267 29.2619C62.4433 29.1147 62.4565 28.9707 62.4731 28.8235C62.4929 28.6468 62.2977 28.4996 62.1355 28.5029C61.9369 28.5094 61.831 28.6599 61.8112 28.8366Z" fill="#46A358"/>
<path d="M57.6542 35.3799C57.6211 35.4911 57.5847 35.5991 57.5516 35.7103C57.4259 36.1127 58.0679 36.2731 58.1937 35.8706C58.2268 35.7594 58.2632 35.6514 58.2963 35.5402C58.422 35.1378 57.78 34.9807 57.6542 35.3799Z" fill="#46A358"/>
<path d="M57.1216 38.7203C57.0521 38.9035 56.9792 39.0867 56.9097 39.2699C56.8469 39.4335 56.9892 39.6266 57.148 39.6691C57.34 39.7182 57.4856 39.5971 57.5518 39.4335C57.6213 39.2503 57.6941 39.0671 57.7636 38.8839C57.8265 38.7203 57.6842 38.5273 57.5253 38.4847C57.3334 38.4357 57.1877 38.5534 57.1216 38.7203Z" fill="#46A358"/>
<path d="M59.7262 37.3887C59.7295 37.4967 59.7295 37.6079 59.7328 37.7159C59.7427 38.1379 60.4046 38.1248 60.3947 37.7028C60.3914 37.5948 60.3914 37.4836 60.3881 37.3756C60.3782 36.9536 59.7163 36.9667 59.7262 37.3887Z" fill="#46A358"/>
<path d="M58.4916 41.7237C58.475 41.8709 58.4618 42.0148 58.4452 42.1621C58.4254 42.3387 58.6207 42.486 58.7828 42.4827C58.9814 42.4794 59.0873 42.3257 59.1072 42.149C59.1237 42.0018 59.1369 41.8578 59.1535 41.7106C59.1733 41.5339 58.9781 41.3867 58.8159 41.3899C58.6207 41.3932 58.5114 41.547 58.4916 41.7237Z" fill="#46A358"/>
<path d="M28.2591 28.0808C28.3154 28.2607 28.375 28.4439 28.4312 28.6239C28.557 29.0263 29.1924 28.8398 29.0667 28.4374C29.0104 28.2574 28.9508 28.0742 28.8946 27.8943C28.7655 27.4919 28.1301 27.6783 28.2591 28.0808Z" fill="#46A358"/>
<path d="M28.941 27.3381C29.1628 27.6097 29.3878 27.8812 29.6095 28.1495C29.7221 28.2869 29.9637 28.2574 30.0762 28.1397C30.2119 27.999 30.1788 27.8158 30.0663 27.6784C29.8445 27.4068 29.6195 27.1353 29.3977 26.867C29.2852 26.7296 29.0436 26.759 28.9311 26.8768C28.7954 27.0142 28.8285 27.2007 28.941 27.3381Z" fill="#46A358"/>
<path d="M30.2117 29.6414C30.4037 29.9097 30.5956 30.178 30.7843 30.443C31.0292 30.7865 31.5951 30.4463 31.3502 30.1027C31.1583 29.8345 30.9663 29.5662 30.7777 29.3012C30.5294 28.9576 29.9635 29.2946 30.2117 29.6414Z" fill="#46A358"/>
<path d="M29.3976 30.4233C29.5498 30.6752 29.7021 30.9271 29.8543 31.1791C30.0728 31.5389 30.6387 31.1987 30.4203 30.8388C30.268 30.5869 30.1158 30.335 29.9635 30.083C29.7418 29.7199 29.1792 30.0601 29.3976 30.4233Z" fill="#46A358"/>
<path d="M30.8803 33.1225C31.0722 33.4628 31.2675 33.803 31.4594 34.1433C31.6679 34.5097 32.2339 34.1694 32.0254 33.803C31.8334 33.4628 31.6382 33.1225 31.4462 32.7823C31.2344 32.4158 30.6718 32.7561 30.8803 33.1225Z" fill="#46A358"/>
<path d="M31.4661 32.1311C31.5984 32.3274 31.7308 32.527 31.8632 32.7233C32.0982 33.0734 32.6641 32.7331 32.4291 32.383C32.2967 32.1867 32.1644 31.9872 32.032 31.7909C31.7937 31.4408 31.2278 31.7778 31.4661 32.1311Z" fill="#46A358"/>
<path d="M31.7739 30.757C31.8832 30.9893 32.0685 31.1693 32.2902 31.3001C32.6609 31.5128 32.9819 30.9402 32.6112 30.7276C32.4789 30.6523 32.3994 30.5509 32.3366 30.4168C32.2604 30.2565 32.0222 30.2237 31.8798 30.3088C31.7177 30.4102 31.6978 30.5967 31.7739 30.757Z" fill="#46A358"/>
<path d="M29.2917 32.4746C29.3348 32.6545 29.3745 32.8345 29.4175 33.0177C29.4572 33.1911 29.6657 33.286 29.8279 33.2369C30.0099 33.1846 30.0893 33.0013 30.0496 32.8312C30.0066 32.6513 29.9669 32.4713 29.9239 32.2881C29.8841 32.1147 29.6756 32.0198 29.5135 32.0689C29.3315 32.1213 29.252 32.3045 29.2917 32.4746Z" fill="#46A358"/>
<path d="M31.3802 35.8935C31.5325 36.201 31.6847 36.5086 31.8336 36.8128C31.9131 36.9731 32.148 37.0058 32.2903 36.9208C32.4558 36.8226 32.479 36.6296 32.3996 36.4693C32.2473 36.1618 32.0951 35.8542 31.9462 35.55C31.8667 35.3896 31.6317 35.3569 31.4894 35.442C31.324 35.5434 31.3008 35.7364 31.3802 35.8935Z" fill="#46A358"/>
<path d="M33.8523 34.9677C33.9682 35.1837 34.0807 35.3996 34.1965 35.6155C34.3951 35.9885 34.9577 35.645 34.7625 35.2753C34.6466 35.0593 34.5341 34.8434 34.4183 34.6275C34.2164 34.2545 33.6538 34.5948 33.8523 34.9677Z" fill="#46A358"/>
<path d="M34.6068 39.6462C34.7028 39.8261 34.7988 40.0061 34.8981 40.1828C35.0999 40.5557 35.6626 40.2122 35.464 39.8425C35.368 39.6626 35.272 39.4826 35.1727 39.3059C34.9709 38.933 34.4049 39.2732 34.6068 39.6462Z" fill="#46A358"/>
<path d="M35.7818 37.9875C35.8943 38.1675 36.0101 38.3474 36.1227 38.5273C36.3477 38.884 36.9136 38.5437 36.6886 38.1871C36.5761 38.0071 36.4602 37.8272 36.3477 37.6473C36.1193 37.2907 35.5534 37.6309 35.7818 37.9875Z" fill="#46A358"/>
<path d="M37.0989 43.0324C37.1916 43.196 37.2875 43.3563 37.3802 43.5199C37.592 43.8863 38.1546 43.5428 37.9461 43.1796C37.8535 43.0161 37.7575 42.8558 37.6648 42.6922C37.453 42.3257 36.8871 42.666 37.0989 43.0324Z" fill="#46A358"/>
<path d="M26.4258 41.0105C26.6475 41.1152 26.8726 41.2167 27.0943 41.3214C27.4782 41.5013 27.8025 40.9288 27.4153 40.7488C27.1936 40.6441 26.9685 40.5427 26.7468 40.438C26.3662 40.2613 26.0419 40.8306 26.4258 41.0105Z" fill="#46A358"/>
<path d="M28.5339 41.9625C28.7789 42.1359 29.0238 42.3126 29.2654 42.486C29.411 42.5906 29.636 42.5023 29.7154 42.3584C29.8114 42.1882 29.732 42.0181 29.5864 41.9134C29.3415 41.74 29.0966 41.5633 28.855 41.3899C28.7094 41.2852 28.4843 41.3736 28.4049 41.5175C28.3122 41.6877 28.3916 41.8578 28.5339 41.9625Z" fill="#46A358"/>
<path d="M28.2095 40.9615C28.3783 40.9975 28.5339 41.0531 28.6861 41.1381C29.0601 41.341 29.3811 40.7684 29.0071 40.5656C28.8085 40.4576 28.5934 40.3758 28.3717 40.3268C27.958 40.2352 27.7925 40.8699 28.2095 40.9615Z" fill="#46A358"/>
<path d="M30.1491 42.3584C30.298 42.4631 30.4469 42.571 30.5959 42.6757C30.7415 42.7772 30.9665 42.6921 31.046 42.5481C31.1419 42.378 31.0625 42.2046 30.9169 42.1032C30.768 41.9985 30.619 41.8905 30.4701 41.7858C30.3245 41.6844 30.0994 41.7695 30.02 41.9134C29.9273 42.0836 30.0035 42.2537 30.1491 42.3584Z" fill="#46A358"/>
<path d="M30.1027 43.3366C30.1788 43.4446 30.2549 43.5525 30.331 43.6605C30.5726 44.004 31.1385 43.667 30.8969 43.3202C30.8208 43.2123 30.7447 43.1043 30.6686 42.9963C30.427 42.6495 29.8577 42.9898 30.1027 43.3366Z" fill="#46A358"/>
<path d="M31.6018 43.8633C31.7507 43.9876 31.8996 44.1119 32.0519 44.2363C32.1876 44.3508 32.3894 44.3606 32.5185 44.2264C32.6376 44.1054 32.6476 43.8764 32.5086 43.7651C32.3596 43.6408 32.2107 43.5165 32.0585 43.3922C31.9228 43.2777 31.7209 43.2678 31.5918 43.402C31.4727 43.5198 31.4628 43.7488 31.6018 43.8633Z" fill="#46A358"/>
<path d="M65.7626 34.225C65.4085 34.1596 65.0577 34.1661 64.7069 34.2545C64.2932 34.3591 64.4819 34.9873 64.8955 34.8826C65.1272 34.8237 65.3622 34.8139 65.5972 34.8597C66.0175 34.9382 66.1796 34.3035 65.7626 34.225Z" fill="#46A358"/>
<path d="M63.4791 34.9022C63.3534 34.9971 63.2243 35.0887 63.0986 35.1836C62.9562 35.2883 62.8901 35.4715 62.9893 35.6351C63.0754 35.7758 63.3004 35.851 63.4461 35.743C63.5718 35.6482 63.7009 35.5566 63.8266 35.4617C63.969 35.357 64.0351 35.1738 63.9359 35.0102C63.8498 34.8695 63.6248 34.7975 63.4791 34.9022Z" fill="#46A358"/>
<path d="M63.585 34.5816C64.0119 34.5717 63.9986 33.9174 63.5717 33.9272C63.1448 33.937 63.158 34.5914 63.585 34.5816Z" fill="#46A358"/>
</g>
<g clip-path="url(#clip1_1_526)">
<path d="M30.3859 47.6165C28.0447 53.631 26.3971 59.9164 25.8568 66.3709C25.3966 71.8879 25.5367 77.8382 28.5583 82.6512C28.9051 83.2029 29.7589 82.6749 29.412 82.1198C26.3804 77.2933 26.3871 71.2381 26.9141 65.7245C27.501 59.5813 29.1285 53.5938 31.3564 47.867C31.5898 47.2611 30.6193 47.0174 30.3859 47.6165Z" fill="#727272"/>
<path d="M60.7883 46.6856C66.1144 50.7472 66.121 58.1935 66.6947 64.3062C66.9848 67.3896 67.385 70.4832 67.5251 73.5802C67.6552 76.4097 67.4217 79.4153 65.2139 81.4191C64.7337 81.8557 65.4574 82.5563 65.9343 82.1231C67.8786 80.3597 68.4789 77.8347 68.5456 75.2725C68.6424 71.6238 68.032 67.9142 67.6919 64.2893C67.0949 57.9193 67.0215 50.182 61.4786 45.9545C60.9717 45.5653 60.2747 46.293 60.7883 46.6856Z" fill="#727272"/>
<path d="M28.7582 82.8542C31.583 83.8865 34.4712 84.1437 37.4427 84.3976C40.7311 84.6785 44.0495 85.1016 47.3546 84.9831C50.7096 84.8647 54.0747 84.3806 57.4098 84.0151C60.328 83.6936 63.2228 83.2874 65.9443 82.1095C66.5279 81.8557 66.2511 80.8775 65.6574 81.1348C62.836 82.3566 59.8411 82.7357 56.8162 83.0606C53.6679 83.3991 50.4995 83.856 47.3345 83.9677C44.2329 84.0794 41.1246 83.6969 38.0364 83.4363C34.9581 83.1723 31.9365 82.9422 29.005 81.8726C28.398 81.6458 28.1579 82.6342 28.7582 82.8542Z" fill="#727272"/>
<path d="M30.6258 48.1851C32.9537 49.1498 35.3316 50.0027 37.8429 50.3039C40.4543 50.6153 43.1157 50.1685 45.7437 50.2362C47.2012 50.2735 48.5118 50.4732 49.9826 50.2599C51.2499 50.0738 52.5173 49.8165 53.7479 49.4612C56.2992 48.7233 58.7705 47.6944 61.2752 46.8076C61.8788 46.5943 61.5987 45.6196 60.9884 45.8328C56.0858 47.5691 51.4901 49.5965 46.1973 49.2479C43.9962 49.1024 41.805 49.4307 39.6105 49.4104C36.6557 49.3799 33.8142 48.4187 31.1061 47.2983C30.5225 47.0547 30.0289 47.9381 30.6258 48.1851Z" fill="#727272"/>
<path d="M0.663599 51.2414C6.26652 52.135 11.4792 54.8258 15.3846 59.0194C19.1633 63.0776 21.2877 68.4254 25.4099 72.1925C25.8868 72.6291 26.5838 71.898 26.1035 71.4614C21.7346 67.4675 19.5501 61.6899 15.3479 57.5369C11.4125 53.6479 6.32322 51.1196 0.910395 50.2565C0.276731 50.1549 0.0266002 51.1399 0.663599 51.2414Z" fill="#727272"/>
<path d="M1.53734 49.4239C6.62333 48.246 12.0295 48.9466 16.5985 51.5427C20.2438 53.6141 23.2353 56.8871 27.5876 57.3338C28.2279 57.3981 28.2013 56.3827 27.5676 56.3184C22.685 55.8175 19.1632 51.3531 14.7609 49.5186C10.4687 47.7315 5.76288 47.4066 1.25386 48.4491C0.62353 48.5946 0.910347 49.5694 1.53734 49.4239Z" fill="#727272"/>
<path d="M0.723598 48.7435C0.340064 49.2783 0.0932688 49.9045 0.0065569 50.5577C-0.0301289 50.8319 0.0865987 51.0993 0.37008 51.1737C0.60687 51.238 0.940378 51.079 0.977064 50.8048C1.05377 50.2226 1.25721 49.7115 1.59739 49.2343C1.75747 49.0109 1.6174 48.6691 1.40395 48.5438C1.14715 48.3983 0.880347 48.5235 0.723598 48.7435Z" fill="#727272"/>
<path d="M64.8103 49.6709C66.8781 45.6533 73.4482 45.1355 77.1568 46.9767C81.1755 48.9737 83.0298 53.8104 81.3823 58.0412C79.9482 61.7271 76.2629 63.5312 73.2314 65.6567C71.954 66.5537 70.5333 67.5623 69.6495 68.8857C68.7257 70.27 68.8457 72.0301 67.9319 73.411C67.5718 73.9559 68.4489 74.4433 68.8057 73.9052C69.3827 73.0353 69.5494 72.1079 69.8062 71.1128C70.1698 69.7217 70.8968 68.8282 71.9407 67.9177C73.7383 66.3506 75.8461 65.2167 77.7604 63.8121C81.1488 61.3244 83.5267 57.7908 82.8964 53.3636C82.3194 49.3325 79.1244 45.9986 75.1791 45.2641C71.2036 44.5229 65.9642 45.237 63.9332 49.1802C63.6364 49.7556 64.5102 50.2497 64.8103 49.6709Z" fill="#727272"/>
<path d="M65.8242 52.2263C67.2082 49.4238 70.3599 48.6995 73.2214 48.9229C75.129 49.0718 76.3063 49.8334 77.3035 51.4953C78.4074 53.3297 78.3541 54.8833 77.7304 56.8396C76.7499 59.9062 74.9823 61.3277 72.2642 62.7662C70.4833 63.7071 67.7652 64.9392 67.0548 67.0207C66.8447 67.6401 67.8152 67.8838 68.0253 67.2712C68.6723 65.3758 71.8473 64.1438 73.4815 63.2671C74.8989 62.509 76.2263 61.673 77.1834 60.336C78.6976 58.224 79.9416 54.775 78.8443 52.2737C77.5036 49.214 75.4525 47.8567 72.1775 47.8804C69.2627 47.9007 66.3245 48.9568 64.9537 51.7322C64.6636 52.3143 65.5374 52.8085 65.8242 52.2263Z" fill="#727272"/>
<path d="M47.3078 59.5711C44.3663 60.0145 41.8817 62.2348 41.5849 65.3386C41.3014 68.2968 43.2691 72.1485 46.6108 71.9218C49.6591 71.7153 52.3672 68.7165 52.6473 65.7177C52.9575 62.4176 50.5195 59.5406 47.2078 59.6862C46.5641 59.7133 46.5841 60.7287 47.2278 60.7016C50.1327 60.573 52.1337 63.2672 51.5901 66.1035C51.1499 68.3983 48.9687 70.7134 46.5908 70.9097C43.6693 71.1501 42.1785 67.3965 42.6421 64.9595C43.0856 62.6241 45.0567 60.9317 47.3279 60.5899C47.9549 60.4917 47.9448 59.473 47.3078 59.5711Z" fill="#727272"/>
<path d="M47.8815 60.0145C47.7048 57.8619 51.0365 54.5889 52.7041 57.08C53.221 57.8517 53.7213 59.2225 53.5078 60.1736C53.2777 61.1924 52.2938 61.9539 51.5401 62.5801C51.0432 62.993 51.7702 63.6936 52.2605 63.2841C53.4478 62.2992 54.6684 61.1179 54.555 59.429C54.4616 58.048 53.7079 56.2271 52.5206 55.4689C49.986 53.8477 46.6776 57.5606 46.881 60.0382C46.9344 60.6847 47.9349 60.6678 47.8815 60.0145Z" fill="#727272"/>
<path d="M52.5274 63.5109C53.7814 62.7561 57.0264 62.9558 56.6896 65.1355C56.3694 67.2137 53.718 67.2983 52.1472 67.3186C51.5035 67.3254 51.5235 68.3408 52.1672 68.334C54.3717 68.307 58.227 67.6029 57.6767 64.4383C57.2432 61.9539 53.788 61.5681 52.0038 62.6444C51.4501 62.9795 51.9704 63.846 52.5274 63.5109Z" fill="#727272"/>
<path d="M51.52 68.5201C53.2743 69.3053 55.2487 71.6374 53.5811 73.5192C51.6301 75.7193 48.8086 73.5429 48.0883 71.4208C47.8781 70.8047 46.9176 71.0891 47.1278 71.7118C48.0616 74.4534 51.4267 76.8227 54.0214 74.4974C56.5427 72.2398 54.5383 68.7672 52.007 67.6299C51.4233 67.3693 50.9331 68.2561 51.52 68.5201Z" fill="#727272"/>
<path d="M46.6476 71.6746C46.7377 73.3805 46.2674 75.919 44.0063 75.6143C42.9791 75.4756 42.1886 74.538 42.2353 73.4752C42.2754 72.5208 42.939 71.4072 43.3026 70.534C43.5494 69.9383 42.6789 69.4373 42.4288 70.0398C41.8985 71.3192 40.978 72.8118 41.3182 74.2571C41.595 75.4282 42.5055 76.359 43.6728 76.5925C46.651 77.1916 47.7749 74.0743 47.6482 71.6509C47.6148 71.001 46.6143 71.018 46.6476 71.6746Z" fill="#727272"/>
<path d="M43.1656 69.2715C41.3013 70.0534 38.4232 69.8537 37.7728 67.481C37.4894 66.4385 37.8062 65.2065 38.77 64.6413C39.7072 64.093 40.9178 64.2385 41.9383 64.3637C42.5687 64.4416 42.8221 63.4567 42.1851 63.3788C40.7711 63.2062 39.1669 63.0539 37.9496 63.9745C36.9391 64.7394 36.5288 66.0798 36.7223 67.3152C37.2225 70.5069 40.9011 71.3091 43.4491 70.2429C44.0428 69.9992 43.7626 69.021 43.1656 69.2715Z" fill="#727272"/>
<path d="M42.5454 63.4939C40.8612 62.58 39.9808 59.2224 41.4582 57.7704C43.3992 55.8648 45.7838 58.5658 46.9577 60.028C47.3646 60.5323 48.0516 59.7978 47.6514 59.2969C46.1173 57.3879 42.7989 54.467 40.5311 57.2187C38.8635 59.2461 39.8607 63.1893 42.0585 64.384C42.6255 64.6921 43.1157 63.8053 42.5454 63.4939Z" fill="#727272"/>
<path d="M44.153 70.9571C43.3626 71.7288 42.849 73.8172 44.0629 74.4501C45.517 75.2116 46.1607 72.6224 46.3541 71.6882C46.4408 71.2617 45.7938 71.0959 45.7071 71.5224C45.6204 71.9454 45.5104 72.3618 45.3569 72.7679C45.2802 72.9676 45.1969 73.1673 45.0968 73.3568C44.9434 73.6513 44.8533 73.8409 44.4998 73.8002C43.546 73.6818 44.1997 71.8507 44.6366 71.4276C44.9434 71.123 44.4631 70.6559 44.153 70.9571Z" fill="#727272"/>
<path d="M48.4519 71.0044C48.2818 71.9792 49.369 72.7441 50.1461 73.0927C50.9331 73.4448 52.0304 73.5632 52.7674 73.0115C53.4711 72.4835 53.3611 71.5256 53.0576 70.7946C52.644 69.7995 51.7936 69.1293 50.8098 68.7773C50.4029 68.6318 50.2428 69.2918 50.6463 69.4339C51.24 69.6472 51.7736 70.0059 52.1504 70.5272C52.2805 70.7099 52.3806 70.9029 52.4639 71.1127C52.6574 71.6069 52.6874 71.8303 52.3439 72.2601C52.0504 72.6257 51.897 72.7103 51.4501 72.7137C51.1699 72.7137 50.8798 72.6561 50.6163 72.5614C50.2128 72.4158 48.9955 71.7727 49.0989 71.177C49.1722 70.7438 48.5286 70.5746 48.4519 71.0044Z" fill="#727272"/>
<path d="M52.3206 66.6248C53.1577 66.8381 53.9914 66.4725 54.6951 66.0224C55.2087 65.694 55.8857 65.095 55.8257 64.4011C55.7757 63.8223 55.2087 63.5482 54.7018 63.4872C53.828 63.3789 52.9709 63.7614 52.2605 64.242C51.9037 64.4823 52.2505 65.0645 52.6074 64.8208C52.9776 64.567 53.3711 64.3436 53.808 64.2319C54.2115 64.1269 55.3855 63.9577 55.0286 64.8073C54.7151 65.562 53.1943 66.1476 52.484 65.9682C52.0671 65.8633 51.9037 66.5199 52.3206 66.6248Z" fill="#727272"/>
<path d="M49.209 60.3056C49.1556 59.7912 49.2624 59.2801 49.6292 58.901C49.896 58.6201 50.543 58.2478 50.9232 58.4644C51.2601 58.6573 51.2367 59.4696 51.2367 59.8453C51.2334 60.3835 51.12 60.8946 50.9432 61.3989C50.7998 61.8084 51.4468 61.9709 51.5903 61.5647C51.8771 60.7456 51.9771 59.8859 51.8404 59.0228C51.747 58.4305 51.647 57.8416 50.9899 57.7536C49.5358 57.5539 48.4053 58.9247 48.5487 60.3226C48.5853 60.749 49.2524 60.7389 49.209 60.3056Z" fill="#727272"/>
<path d="M43.0158 62.5699C42.4988 61.9098 42.0553 60.7117 42.2287 59.8621C42.3321 59.3477 42.4522 59.1987 42.9791 59.1446C43.506 59.0904 43.6361 59.2495 44.0163 59.5609C44.4032 59.8757 44.78 60.2006 45.1636 60.5188C45.4937 60.7929 45.9573 60.3089 45.6238 60.0314C44.6833 59.2461 43.1725 57.4353 41.9752 58.8129C41.0481 59.8824 41.6717 61.9403 42.4455 62.9252C42.709 63.2603 43.2826 62.9117 43.0158 62.5699Z" fill="#727272"/>
<path d="M41.8185 65.2065C40.5178 64.6785 38.8202 65.8529 39.0203 67.3354C39.2071 68.7401 41.4383 69.2613 42.4421 68.4693C42.7756 68.2053 42.4321 67.6231 42.0953 67.8905C41.5483 68.3237 40.1876 68.2087 39.7874 67.5622C39.2004 66.6246 40.6312 65.4434 41.4983 65.7988C41.8885 65.9579 42.2153 65.3689 41.8185 65.2065Z" fill="#727272"/>
</g>
<defs>
<clipPath id="clip0_1_526">
<rect width="44" height="49" fill="white" transform="translate(24)"/>
</clipPath>
<clipPath id="clip1_1_526">
<rect width="83" height="40" fill="white" transform="translate(0 45)"/>
</clipPath>
</defs>
</svg>
